# AST/ASF file generated using VICON BodyLanguage
# -----------------------------------------------
:version 1.10
:name VICON
:units
  mass 1.0
  length 0.45
  angle deg
:documentation
   .ast/.asf automatically generated from VICON data using
   VICON BodyBuilder and BodyLanguage model FoxedUp or BRILLIANT.MOD
:root
   order TX TY TZ RX RY RZ
   axis XYZ
   position 0 0 0  
   orientation 0 0 0 
:bonedata
  begin
     id 1 
     name lhipjoint
     direction 0.78388 -0.462562 0.414208 
     length 3.01181 
     axis 0 0 0  XYZ
  end
  begin
     id 2 
     name lfemur
     direction 0.34202 -0.939693 0  
     length 6.04673  
     axis 0 0 20  XYZ
    dof rx ry rz
    limits (-160.0 20.0)
           (-70.0 70.0)
           (-60.0 70.0)
  end
  begin
     id 3 
     name ltibia
     direction 0.34202 -0.939693 0   
     length 7.211   
     axis 0 0 20   XYZ
    dof rx
    limits (-10.0 170.0)
  end
  begin
     id 4 
     name lfoot
     direction 0.121887 -0.334882 0.934344   
     length 2.13567   
     axis -90 7.62852e-016 20   XYZ
    dof rx rz
    limits (-45.0 90.0)
           (-70.0 20.0)
  end
  begin
     id 5 
     name ltoes
     direction 1.53555e-011 -4.2179e-011 1   
     length 1.05957   
     axis -90 7.62852e-016 20   XYZ
    dof rx
    limits (-90.0 20.0)
  end
  begin
     id 6 
     name rhipjoint
     direction -0.769387 -0.475875 0.426129   
     length 2.92756  
     axis 0 0 0  XYZ 
  end
  begin
     id 7 
     name rfemur
     direction -0.34202 -0.939693 0   
     length 6.35468   
     axis 0 0 -20   XYZ
    dof rx ry rz
    limits (-160.0 20.0)
           (-70.0 70.0)
           (-70.0 60.0)
  end
  begin
     id 8 
     name rtibia
     direction -0.34202 -0.939693 0   
     length 7.37886   
     axis 0 0 -20   XYZ
    dof rx
    limits (-10.0 170.0)
 end
 begin
     id 9 
     name rfoot
     direction -0.101763 -0.279592 0.954711   
     length 2.21478  
     axis -90 -7.62852e-016 -20   XYZ
    dof rx rz
    limits (-45.0 90.0)
           (-20.0 70.0)
  end
  begin
     id 10 
     name rtoes
     direction -1.53494e-011 -4.21851e-011 1   
     length 1.10506   
     axis -90 -7.62852e-016 -20   XYZ
    dof rx
    limits (-90.0 20.0)
  end
  begin
     id 11 
     name lowerback
     direction 0.00747405 0.999267 0.0375481   
     length 2.13259   
     axis 0 0 0   XYZ
    dof rx ry rz
    limits (-20.0 45.0)
           (-30.0 30.0)
           (-30.0 30.0)
  end
  begin
     id 12 
     name upperback
     direction 0.00661626 0.996177 0.0871029   
     length 2.10528   
     axis 0 0 0   XYZ
    dof rx ry rz
    limits (-20.0 45.0)
           (-30.0 30.0)
           (-30.0 30.0)
  end
  begin
     id 13 
     name thorax
     direction 0.00320659 0.997679 0.0680167   
     length 2.11338   
     axis 0 0 0   XYZ
    dof rx ry rz
    limits (-20.0 45.0)
           (-30.0 30.0)
           (-30.0 30.0)
  end
  begin
     id 14 
     name lowerneck
     direction 0.0374841 0.973033 0.227602   
     length 1.42765   
     axis 0 0 0   XYZ
    dof rx ry rz
    limits (-20.0 45.0)
           (-30.0 30.0)
           (-30.0 30.0)
  end
  begin
     id 15 
     name upperneck
     direction 0.00481585 0.989155 -0.146795   
     length 1.47593   
     axis 0 0 0   XYZ
    dof rx ry rz
    limits (-20.0 45.0)
           (-30.0 30.0)
           (-30.0 30.0)
  end
  begin
     id 16
     name head
     direction -0.00292522 0.997206 -0.0746423  
     length 1.48116  
     axis 0 0 0   XYZ
    dof rx ry rz
    limits (-20.0 45.0)
           (-30.0 30.0)
           (-30.0 30.0)
  end
  begin
     id 17 
     name lclavicle
     direction 0.951444 0.305606 0.0368784  
     length 3.01855  
     axis 0 0 0   XYZ
    dof ry rz
    limits (-20.0 10.0)
           (0.0 20.0)
  end
  begin
     id 18 
     name lhumerus
     direction 1 -4.48977e-011 2.61664e-027   
     length 5.52731   
     axis 180 -30 -90   XYZ
    dof rx ry rz
    limits (-60.0 90.0)
           (-90.0 90.0)
           (-90.0 90.0)
  end
  begin
     id 19
     name lradius
     direction 1 -4.48944e-011 8.22157e-027   
     length 3.11059   
     axis 180 -30 -90   XYZ
    dof rx
    limits (-10.0 170.0)
  end
  begin
     id 20
     name lwrist
     direction 1 -4.48976e-011 1.5779e-026   
     length 1.5553   
     axis -1.15221e-014 90 90   XYZ
    dof ry
    limits (-180.0 0.0)
 end
  begin
     id 21 
     name lhand
     direction 1 -4.49025e-011 3.1558e-026   
     length 0.419626   
     axis -2.01367e-014 90 90   XYZ
    dof rx rz
    limits (-90.0 90.0)
           (-45.0 45.0)
  end
  begin
     id 22 
     name lfingers
     direction 1 -4.4904e-011 6.31161e-026   
     length 0.338313   
     axis -4.02734e-014 90 90   XYZ
    dof rx
    limits (0.0 90.0)
  end
  begin
     id 23
     name lthumb
     direction 0.707107 -6.35004e-011 0.707107   
     length 0.485752   
     axis -90 45 2.85299e-015   XYZ
    dof rx rz
    limits (-45.0 45.0)
           (-45.0 45.0)
  end
  begin
     id 24 
     name rclavicle
     direction -0.968876 0.223791 0.105816   
     length 3.04177  
     axis 0 0 0   XYZ 
    dof ry rz
    limits (-10.0 20.0)
           (-20.0 0.0)
  end
  begin
     id 25 
     name rhumerus
     direction -1 -4.48962e-011 -1.01384e-027  
     length 5.25396   
     axis 180 30 90   XYZ
    dof rx ry rz
    limits (-90.0 60.0)
           (-90.0 90.0)
           (-90.0 90.0)
  end
  begin
     id 26 
     name rradius
     direction -1 -4.48955e-011 8.88542e-027   
     length 3.10567   
     axis 180 30 90   XYZ
    dof rx
    limits (-10.0 170.0)
  end
  begin
     id 27 
     name rwrist
     direction -1 -4.48994e-011 1.5779e-026   
     length 1.55283   
     axis -1.15221e-014 -90 -90   XYZ
    dof ry
    limits (-180.0 0.0)
  end
  begin
     id 28
     name rhand
     direction -1 -4.48891e-011 3.1558e-026   
     length 0.498676   
     axis -2.01367e-014 -90 -90   XYZ
    dof rx rz
    limits (-90.0 90.0)
           (-45.0 45.0)
  end
  begin
     id 29
     name rfingers
     direction -1 -4.48972e-011 6.31161e-026   
     length 0.402045   
     axis -4.02734e-014 -90 -90   XYZ
    dof rx
    limits (0.0 90.0)
  end
  begin
     id 30
     name rthumb
     direction -0.707107 -6.34849e-011 0.707107   
     length 0.577259   
     axis -90 -45 -2.85299e-015   XYZ
    dof rx rz
    limits (-45.0 45.0)
           (-45.0 45.0)
  end
:hierarchy
  begin
    root lhipjoint rhipjoint lowerback
    lhipjoint lfemur
    lfemur ltibia
    ltibia lfoot
    lfoot ltoes
    rhipjoint rfemur
    rfemur rtibia
    rtibia rfoot
    rfoot rtoes
    lowerback upperback
    upperback thorax
    thorax lowerneck lclavicle rclavicle
    lowerneck upperneck
    upperneck head
    lclavicle lhumerus
    lhumerus lradius
    lradius lwrist
    lwrist lhand lthumb
    lhand lfingers
    rclavicle rhumerus
    rhumerus rradius
    rradius rwrist
    rwrist rhand rthumb
    rhand rfingers
  end

#!OML:ASF H:\Pregnant\Project 1\Capture day 1\Session 1\femalepreg.ASF
:FULLY-SPECIFIED
:DEGREES
216
root -9.23317 15.8683 2.73459 -159.326 7.02663 180.861
lowerback -10.0002 2.64314 6.27699
upperback -3.68525 3.26863 0.548951
thorax 2.05015 1.76559 -2.56139
lowerneck -21.4862 -1.08291 3.44343
upperneck 29.0026 0.0972526 -5.34467
head 13.3485 0.106017 -2.5775
rclavicle 3.52843e-014 4.53229e-014
rhumerus -17.2708 28.9775 -91.9655
rradius 61.4783
rwrist -13.0294
rhand -17.7524 -7.77733
rfingers 7.12502
rthumb 8.5093 -37.5859
lclavicle 3.52843e-014 4.53229e-014
lhumerus -62.601 5.24263 42.1703
lradius 17.2682
lwrist 32.1951
lhand -26.9181 4.25754
lfingers 7.12502
lthumb -0.340942 34.237
rfemur -18.9598 21.5799 19.7894
rtibia 31.4469
rfoot -19.5203 -7.54013
rtoes -25.9193
lfemur -54.7446 -9.13767 -8.55197
ltibia 29.6033
lfoot -6.75094 8.16664
ltoes -23.3656
217
root -9.24299 15.8525 2.54807 -159.214 7.36485 181.133
lowerback -10.255 2.64764 6.04041
upperback -3.6706 3.27406 0.318146
thorax 2.20836 1.76862 -2.65612
lowerneck -21.5161 -1.11602 3.33521
upperneck 29.1864 -0.0398103 -4.91577
head 13.4248 0.0978125 -2.41725
rclavicle 1.70955e-014 -1.11319e-014
rhumerus -17.7366 29.5034 -92.1444
rradius 62.6093
rwrist -12.917
rhand -17.5652 -7.00193
rfingers 7.12502
rthumb 8.68995 -36.8031
lclavicle 1.70955e-014 -1.11319e-014
lhumerus -62.591 5.78596 41.1864
lradius 17.2215
lwrist 32.3815
lhand -27.3353 4.06814
lfingers 7.12502
lthumb -0.743971 34.0466
rfemur -18.3216 21.6667 20.066
rtibia 31.3679
rfoot -19.2984 -7.07655
rtoes -26.6569
lfemur -54.6935 -9.25648 -7.81258
ltibia 29.2588
lfoot -6.85984 8.53986
ltoes -23.3921
218
root -9.25216 15.8327 2.36017 -159.105 7.65954 181.391
lowerback -10.5349 2.62703 5.7706
upperback -3.65274 3.25123 0.0781618
thorax 2.37984 1.75823 -2.74453
lowerneck -21.5588 -1.14847 3.25302
upperneck 29.3758 -0.199752 -4.45155
head 13.5064 0.0880438 -2.25126
rclavicle -5.01931e-015 -2.0276e-014
rhumerus -18.2753 29.9078 -92.329
rradius 63.7046
rwrist -12.8921
rhand -17.285 -6.36525
rfingers 7.12502
rthumb 8.96038 -36.155
lclavicle -5.01931e-015 -2.0276e-014
lhumerus -62.5297 6.31126 40.3581
lradius 17.1862
lwrist 32.4801
lhand -27.7605 3.82747
lfingers 7.12502
lthumb -1.15464 33.8041
rfemur -17.7875 21.6794 20.3425
rtibia 31.5059
rfoot -19.0908 -6.56171
rtoes -27.4654
lfemur -54.6074 -9.23241 -7.31371
ltibia 29.0641
lfoot -6.96093 8.58493
ltoes -23.7139
219
root -9.26071 15.8084 2.17064 -159.027 7.89884 181.622
lowerback -10.8126 2.5734 5.46034
upperback -3.62914 3.19229 -0.171239
thorax 2.55119 1.72994 -2.82549
lowerneck -21.5989 -1.18282 3.1933
upperneck 29.5687 -0.383805 -3.95067
head 13.5895 0.0768687 -2.07811
rclavicle 1.51573e-014 1.94809e-014
rhumerus -18.8886 30.2023 -92.5261
rradius 64.7523
rwrist -12.9791
rhand -16.9049 -5.88627
rfingers 7.12502
rthumb 9.32707 -35.6599
lclavicle 1.51573e-014 1.94809e-014
lhumerus -62.425 6.757 39.7622
lradius 17.1878
lwrist 32.5316
lhand -28.2018 3.64411
lfingers 7.12502
lthumb -1.58078 33.618
rfemur -17.3312 21.6072 20.6222
rtibia 31.8689
rfoot -18.8914 -5.99643
rtoes -28.3229
lfemur -54.4564 -9.05881 -7.09578
ltibia 29.0041
lfoot -6.89418 8.1881
ltoes -24.4765
220
root -9.26887 15.7803 1.97936 -159.004 8.06413 181.809
lowerback -11.0624 2.47914 5.10314
upperback -3.59712 3.08939 -0.433063
thorax 2.71061 1.67932 -2.90094
lowerneck -21.6326 -1.22327 3.15361
upperneck 29.7684 -0.59327 -3.42014
head 13.675 0.063289 -1.9002
rclavicle -1.85864e-014 7.55382e-015
rhumerus -19.5867 30.3985 -92.735
rradius 65.7541
rwrist -13.1942
rhand -16.4396 -5.58406
rfingers 7.12502
rthumb 9.77601 -35.3372
lclavicle -1.85864e-014 7.55382e-015
lhumerus -62.2701 7.12834 39.3746
lradius 17.207
lwrist 32.4932
lhand -28.5978 3.49422
lfingers 7.12502
lthumb -1.96323 33.4649
rfemur -16.9222 21.4253 20.9026
rtibia 32.4524
rfoot -18.6862 -5.37903
rtoes -29.2096
lfemur -54.2269 -8.73993 -7.19057
ltibia 29.0854
lfoot -6.49262 7.28511
ltoes -25.5842
221
root -9.2759 15.7507 1.78741 -159.003 8.18953 181.96
lowerback -11.3064 2.35114 4.6802
upperback -3.56744 2.95499 -0.700415
thorax 2.85894 1.61328 -2.95092
lowerneck -21.6531 -1.26904 3.12881
upperneck 29.9684 -0.824319 -2.86189
head 13.7594 0.0482881 -1.71644
rclavicle -2.54755e-014 -2.83268e-015
rhumerus -20.3636 30.5259 -92.9505
rradius 66.6981
rwrist -13.5305
rhand -15.9048 -5.47867
rfingers 7.12502
rthumb 10.292 -35.2068
lclavicle -2.54755e-014 -2.83268e-015
lhumerus -62.0739 7.43095 39.1777
lradius 17.2391
lwrist 32.3668
lhand -28.8817 3.35288
lfingers 7.12502
lthumb -2.2375 33.3209
rfemur -16.6122 21.1544 21.162
rtibia 33.2414
rfoot -18.4322 -4.67935
rtoes -30.0915
lfemur -53.956 -8.24143 -7.56912
ltibia 29.3394
lfoot -5.77087 5.87251
ltoes -26.4788
222
root -9.28192 15.7215 1.5952 -159.029 8.27955 182.069
lowerback -11.5337 2.19047 4.18833
upperback -3.53883 2.79199 -0.974405
thorax 2.99242 1.53316 -2.97477
lowerneck -21.6559 -1.32169 3.12528
upperneck 30.1682 -1.07469 -2.2934
head 13.8419 0.0315012 -1.53433
rclavicle -2.85256e-014 -3.97569e-015
rhumerus -21.2165 30.5996 -93.1699
rradius 67.5775
rwrist -13.9746
rhand -15.3418 -5.57054
rfingers 7.12502
rthumb 10.8351 -35.271
lclavicle -2.85256e-014 -3.97569e-015
lhumerus -61.8289 7.65493 39.1758
lradius 17.2888
lwrist 32.212
lhand -29.021 3.22651
lfingers 7.12502
lthumb -2.37197 33.1931
rfemur -16.3979 20.7824 21.3923
rtibia 34.2233
rfoot -18.0878 -3.87666
rtoes -30.9442
lfemur -53.6664 -7.59005 -8.19764
ltibia 29.7994
lfoot -4.90299 4.08118
ltoes -26.8743
223
root -9.28722 15.6951 1.40283 -159.083 8.33715 182.136
lowerback -11.7393 1.99759 3.62757
upperback -3.50854 2.60141 -1.25178
thorax 3.11173 1.43954 -2.96898
lowerneck -21.6403 -1.37954 3.13904
upperneck 30.3629 -1.33855 -1.72071
head 13.9204 0.0139446 -1.35449
rclavicle -1.59028e-015 -1.19271e-015
rhumerus -22.1333 30.6373 -93.3903
rradius 68.3691
rwrist -14.4971
rhand -14.7958 -5.841
rfingers 7.12502
rthumb 11.3617 -35.5132
lclavicle -1.59028e-015 -1.19271e-015
lhumerus -61.524 7.8363 39.32
lradius 17.3305
lwrist 32.0234
lhand -28.9712 3.04544
lfingers 7.12502
lthumb -2.32394 33.0125
rfemur -16.2881 20.2971 21.5879
rtibia 35.4002
rfoot -17.6057 -2.94879
rtoes -31.7085
lfemur -53.3913 -6.85483 -8.9946
ltibia 30.4795
lfoot -4.02238 2.21926
ltoes -26.7685
224
root -9.29205 15.6729 1.21101 -159.165 8.3671 182.153
lowerback -11.9166 1.77391 2.9911
upperback -3.47381 2.38604 -1.52837
thorax 3.21696 1.33379 -2.9249
lowerneck -21.5979 -1.44253 3.1571
upperneck 30.539 -1.60977 -1.14832
head 13.9879 -0.00470946 -1.17534
rclavicle 6.21202e-015 -5.56597e-015
rhumerus -23.1088 30.645 -93.6035
rradius 69.0635
rwrist -15.0533
rhand -14.3157 -6.24706
rfingers 7.12502
rthumb 11.8247 -35.8932
lclavicle 6.21202e-015 -5.56597e-015
lhumerus -61.1482 7.98223 39.6172
lradius 17.362
lwrist 31.8456
lhand -28.7319 2.82265
lfingers 7.12502
lthumb -2.09282 32.7921
rfemur -16.3088 19.6856 21.7356
rtibia 36.7906
rfoot -16.9269 -1.87397
rtoes -32.3303
lfemur -53.1438 -6.12726 -9.86834
ltibia 31.3518
lfoot -3.38088 0.539176
ltoes -26.2154
225
root -9.29739 15.6549 1.02012 -159.289 8.36684 182.113
lowerback -12.0445 1.5217 2.2868
upperback -3.4286 2.14739 -1.80266
thorax 3.30437 1.21637 -2.8454
lowerneck -21.5249 -1.51 3.16264
upperneck 30.688 -1.88237 -0.572751
head 14.0399 -0.024196 -0.991659
rclavicle 4.06515e-014 7.55382e-015
rhumerus -24.1378 30.6233 -93.8089
rradius 69.6428
rwrist -15.6117
rhand -13.9382 -6.73681
rfingers 7.12502
rthumb 12.1887 -36.3617
lclavicle 4.06515e-014 7.55382e-015
lhumerus -60.6825 8.09818 40.0758
lradius 17.3789
lwrist 31.6903
lhand -28.3614 2.63393
lfingers 7.12502
lthumb -1.73496 32.6066
rfemur -16.4746 18.9307 21.8289
rtibia 38.4277
rfoot -15.996 -0.661308
rtoes -32.7331
lfemur -52.8976 -5.5138 -10.7358
ltibia 32.3481
lfoot -3.12826 -0.805056
ltoes -25.3233
226
root -9.30346 15.6408 0.830824 -159.463 8.33931 181.997
lowerback -12.1025 1.24523 1.50106
upperback -3.37157 1.89203 -2.07685
thorax 3.36554 1.09036 -2.72408
lowerneck -21.432 -1.58539 3.14596
upperneck 30.8104 -2.1533 -0.0097541
head 14.0788 -0.047416 -0.807998
rclavicle -3.72721e-014 3.49861e-014
rhumerus -25.2161 30.5564 -93.9998
rradius 70.0997
rwrist -16.1626
rhand -13.6799 -7.29278
rfingers 7.12502
rthumb 12.4377 -36.9027
lclavicle -3.72721e-014 3.49861e-014
lhumerus -60.0994 8.17829 40.7102
lradius 17.3625
lwrist 31.5553
lhand -27.8716 2.44983
lfingers 7.12502
lthumb -1.26187 32.4258
rfemur -16.807 18.031 21.8423
rtibia 40.3378
rfoot -14.7395 0.670199
rtoes -32.7673
lfemur -52.6155 -5.09062 -11.5612
ltibia 33.3748
lfoot -3.31123 -1.71367
ltoes -24.3322
227
root -9.30993 15.6296 0.64427 -159.701 8.28931 181.782
lowerback -12.0581 0.946492 0.609189
upperback -3.30634 1.62402 -2.35167
thorax 3.37982 0.957736 -2.54709
lowerneck -21.3119 -1.66947 3.0875
upperneck 30.9021 -2.4169 0.543785
head 14.1015 -0.0745076 -0.618954
rclavicle 8.84592e-015 2.38542e-015
rhumerus -26.354 30.4417 -94.1764
rradius 70.4268
rwrist -16.7005
rhand -13.5677 -7.88173
rfingers 7.12502
rthumb 12.5459 -37.4851
lclavicle 8.84592e-015 2.38542e-015
lhumerus -59.3889 8.13759 41.6128
lradius 17.3417
lwrist 31.5539
lhand -27.3135 2.31726
lfingers 7.12502
lthumb -0.722898 32.2958
rfemur -17.3136 17.0162 21.7523
rtibia 42.5264
rfoot -13.0761 2.03469
rtoes -32.1875
lfemur -52.2414 -4.86989 -12.3646
ltibia 34.3333
lfoot -3.84411 -2.27777
ltoes -23.4984
